<svg width="377.29750976562497px" height="124.4224853515625px" xmlns="http://www.w3.org/2000/svg" viewBox="61.35124511718752 12.78875732421875 377.29750976562497 124.4224853515625" style="background: rgb(255, 255, 255);" preserveAspectRatio="xMidYMid"><defs><filter id="editing-hover" x="-100%" y="-100%" width="300%" height="300%"><feFlood flood-color="#d88c51" result="flood"></feFlood><feComposite operator="in" in2="SourceAlpha" in="flood" result="shadow"></feComposite><feOffset dx="0.1" dy="0.1" in="SourceGraphic" result="offset-1"></feOffset><feOffset dx="-0.1" dy="-0.1" in="shadow" result="offset-2"></feOffset><feMerge><feMergeNode in="offset-2"></feMergeNode><feMergeNode in="offset-1"></feMergeNode></feMerge></filter></defs><g filter="url(#editing-hover)"><g transform="translate(115.91998863220215, 97.90999984741211)"><path d="M4.99 0L4.99-44.80L20.74-44.80L20.74-44.80Q26.82-44.80 29.79-41.09L29.79-41.09L29.79-41.09Q32.77-37.38 32.77-31.10L32.77-31.10L32.77-31.10Q32.77-27.07 32.13-23.84L32.13-23.84L32.13-23.84Q31.49-20.61 28.93-18.14L28.93-18.14L28.93-18.14Q26.37-15.68 21.18-15.68L21.18-15.68L8.58-15.68L8.58 0L4.99 0ZM21.25-19.20L21.25-19.20Q24.83-19.20 26.59-21.12L26.59-21.12L26.59-21.12Q28.35-23.04 28.77-25.47L28.77-25.47L28.77-25.47Q29.18-27.90 29.18-30.91L29.18-30.91L29.18-30.91Q29.18-36.16 27.01-38.78L27.01-38.78L27.01-38.78Q24.83-41.41 20.99-41.41L20.99-41.41L8.58-41.41L8.58-19.20L21.25-19.20ZM63.74-11.78L63.74-11.78Q63.74-6.40 60.80-2.88L60.80-2.88L60.80-2.88Q57.86 0.64 51.90 0.64L51.90 0.64L51.90 0.64Q45.95 0.64 42.91-2.91L42.91-2.91L42.91-2.91Q39.87-6.46 39.87-11.78L39.87-11.78L39.87-20.22L39.87-20.22Q39.87-26.30 42.98-29.54L42.98-29.54L42.98-29.54Q46.08-32.77 51.90-32.77L51.90-32.77L51.90-32.77Q57.47-32.77 60.61-29.41L60.61-29.41L60.61-29.41Q63.74-26.05 63.74-20.22L63.74-20.22L63.74-11.78ZM60.16-20.22L60.16-20.22Q60.16-25.02 57.95-27.26L57.95-27.26L57.95-27.26Q55.74-29.50 51.90-29.50L51.90-29.50L51.90-29.50Q47.94-29.50 45.70-27.26L45.70-27.26L45.70-27.26Q43.46-25.02 43.46-20.22L43.46-20.22L43.46-11.14L43.46-11.14Q43.46-7.30 45.73-4.93L45.73-4.93L45.73-4.93Q48-2.56 51.90-2.56L51.90-2.56L51.90-2.56Q55.87-2.56 58.02-4.90L58.02-4.90L58.02-4.90Q60.16-7.23 60.16-11.14L60.16-11.14L60.16-20.22ZM70.85 0L70.85-44.80L74.43-44.80L74.43 0L70.85 0ZM103.04 0L90.75-20.29L87.42-17.41L87.42 0L83.84 0L83.84-44.80L87.42-44.80L87.42-21.44L100.22-33.28L102.78-30.78L93.31-22.53L93.31-22.53Q97.66-15.30 107.33 0L107.33 0L103.04 0ZM134.34 0L134.34 0Q127.42 0.70 124.35 0.70L124.35 0.70L124.35 0.70Q117.63 0.70 113.66-1.79L113.66-1.79L113.66-1.79Q109.70-4.29 109.70-10.82L109.70-10.82L109.70-16.13L109.70-16.13Q109.70-22.46 114.11-24.64L114.11-24.64L114.11-24.64Q116.22-25.73 119.49-25.73L119.49-25.73L119.49-25.73Q122.50-25.73 125.57-24.74L125.57-24.74L125.57-24.74Q128.64-23.74 130.75-22.14L130.75-22.14L130.75-22.14Q130.75-25.66 128.70-27.74L128.70-27.74L128.70-27.74Q126.66-29.82 120.83-29.82L120.83-29.82L121.02-32.58L121.02-32.58Q127.17-32.58 130.08-30.62L130.08-30.62L130.08-30.62Q132.99-28.67 133.66-25.98L133.66-25.98L133.66-25.98Q134.34-23.30 134.34-19.07L134.34-19.07L134.34 0ZM130.75-19.39L130.75-19.39Q128.13-20.61 125.15-21.50L125.15-21.50L125.15-21.50Q122.18-22.40 119.68-22.40L119.68-22.40L119.68-22.40Q113.22-22.40 113.22-15.94L113.22-15.94L113.22-10.37L113.22-10.37Q113.22-6.21 116.10-4.32L116.10-4.32L116.10-4.32Q118.98-2.43 124.29-2.43L124.29-2.43L124.29-2.43Q127.04-2.43 130.75-2.94L130.75-2.94L130.75-19.39ZM159.42 0L159.42-44.86L171.46-44.86L171.46-44.86Q178.69-44.86 182.50-40.90L182.50-40.90L182.50-40.90Q186.30-36.93 186.30-30.34L186.30-30.34L186.30-12.80L186.30-12.80Q186.30 0 172.74 0L172.74 0L159.42 0ZM182.72-30.98L182.72-30.98Q182.72-34.62 181.15-37.02L181.15-37.02L181.15-37.02Q179.58-39.42 177.15-40.51L177.15-40.51L177.15-40.51Q174.72-41.60 172.10-41.60L172.10-41.60L163.01-41.60L163.01-3.20L171.71-3.20L171.71-3.20Q176.38-3.20 179.55-5.02L179.55-5.02L179.55-5.02Q182.72-6.85 182.72-12.16L182.72-12.16L182.72-30.98ZM220.16-11.78L220.16-11.78Q220.16-6.40 217.22-2.88L217.22-2.88L217.22-2.88Q214.27 0.64 208.32 0.64L208.32 0.64L208.32 0.64Q202.37 0.64 199.33-2.91L199.33-2.91L199.33-2.91Q196.29-6.46 196.29-11.78L196.29-11.78L196.29-20.22L196.29-20.22Q196.29-26.30 199.39-29.54L199.39-29.54L199.39-29.54Q202.50-32.77 208.32-32.77L208.32-32.77L208.32-32.77Q213.89-32.77 217.02-29.41L217.02-29.41L217.02-29.41Q220.16-26.05 220.16-20.22L220.16-20.22L220.16-11.78ZM216.58-20.22L216.58-20.22Q216.58-25.02 214.37-27.26L214.37-27.26L214.37-27.26Q212.16-29.50 208.32-29.50L208.32-29.50L208.32-29.50Q204.35-29.50 202.11-27.26L202.11-27.26L202.11-27.26Q199.87-25.02 199.87-20.22L199.87-20.22L199.87-11.14L199.87-11.14Q199.87-7.30 202.14-4.93L202.14-4.93L202.14-4.93Q204.42-2.56 208.32-2.56L208.32-2.56L208.32-2.56Q212.29-2.56 214.43-4.90L214.43-4.90L214.43-4.90Q216.58-7.23 216.58-11.14L216.58-11.14L216.58-20.22ZM231.87 0.83L231.87 0.83Q228.29-0.19 226.69-2.43L226.69-2.43L226.69-2.43Q225.09-4.67 225.09-8.45L225.09-8.45L225.09-44.80L228.67-44.80L228.67-32.06L236.35-32.06L234.82-28.67L228.67-28.67L228.67-8.45L228.67-8.45Q228.67-3.33 232.90-1.92L232.90-1.92L231.87 0.83ZM243.52-8.13L243.52-8.13Q243.90-5.25 246.40-3.81L246.40-3.81L246.40-3.81Q248.90-2.37 251.97-2.37L251.97-2.37L251.97-2.37Q254.85-2.37 257.22-3.68L257.22-3.68L257.22-3.68Q259.58-4.99 259.58-7.94L259.58-7.94L259.58-7.94Q259.58-9.86 258.46-11.10L258.46-11.10L258.46-11.10Q257.34-12.35 255.68-13.12L255.68-13.12L255.68-13.12Q254.02-13.89 251.20-14.78L251.20-14.78L251.20-14.78Q248.06-15.81 246.08-16.70L246.08-16.70L246.08-16.70Q244.10-17.60 242.62-19.23L242.62-19.23L242.62-19.23Q241.15-20.86 240.90-23.36L240.90-23.36L240.83-24.13L240.83-24.13Q240.83-26.24 242.02-28.26L242.02-28.26L242.02-28.26Q243.20-30.27 245.66-31.55L245.66-31.55L245.66-31.55Q248.13-32.83 251.84-32.83L251.84-32.83L251.84-32.83Q253.89-32.83 255.46-32.42L255.46-32.42L255.46-32.42Q257.02-32 257.92-31.55L257.92-31.55L257.92-31.55Q258.82-31.10 259.01-30.98L259.01-30.98L257.79-28.03L257.79-28.03Q257.60-28.16 256.86-28.54L256.86-28.54L256.86-28.54Q256.13-28.93 254.78-29.31L254.78-29.31L254.78-29.31Q253.44-29.70 251.84-29.70L251.84-29.70L251.84-29.70Q248.77-29.70 246.59-28.26L246.59-28.26L246.59-28.26Q244.42-26.82 244.42-24.26L244.42-24.26L244.42-24.26Q244.42-21.82 246.40-20.54L246.40-20.54L246.40-20.54Q248.38-19.26 252.48-17.98L252.48-17.98L252.48-17.98Q255.94-16.83 258.05-15.81L258.05-15.81L258.05-15.81Q260.16-14.78 261.66-12.90L261.66-12.90L261.66-12.90Q263.17-11.01 263.17-8L263.17-8L263.17-8Q263.17-4.16 260.32-1.60L260.32-1.60L260.32-1.60Q257.47 0.96 251.97 0.96L251.97 0.96L251.97 0.96Q248.32 0.96 245.66-0.29L245.66-0.29L245.66-0.29Q243.01-1.54 241.63-3.58L241.63-3.58L241.63-3.58Q240.26-5.63 240.13-8.13L240.13-8.13L243.52-8.13Z" fill="#000000"></path></g></g><style>text {
  font-size: 64px;
  font-family: Arial Black;
  dominant-baseline: central;
  text-anchor: middle;
}</style></svg>