<svg width="192.507470703125px" height="124.4224853515625px" xmlns="http://www.w3.org/2000/svg" viewBox="153.7462646484375 12.78875732421875 192.507470703125 124.4224853515625" style="background: rgb(255, 255, 255);" preserveAspectRatio="xMidYMid"><defs><filter id="editing-hover" x="-100%" y="-100%" width="300%" height="300%"><feFlood flood-color="#d88c51" result="flood"></feFlood><feComposite operator="in" in2="SourceAlpha" in="flood" result="shadow"></feComposite><feOffset dx="0.1" dy="0.1" in="SourceGraphic" result="offset-1"></feOffset><feOffset dx="-0.1" dy="-0.1" in="shadow" result="offset-2"></feOffset><feMerge><feMergeNode in="offset-2"></feMergeNode><feMergeNode in="offset-1"></feMergeNode></feMerge></filter></defs><g filter="url(#editing-hover)"><g transform="translate(185.13500022888184, 97.78499984741211)"><path d="M4.99 0L4.99-44.80L19.14-44.80L19.14-44.80Q24.38-44.80 27.39-42.11L27.39-42.11L27.39-42.11Q30.40-39.42 30.40-33.92L30.40-33.92L30.40-33.92Q30.40-31.42 29.57-29.18L29.57-29.18L29.57-29.18Q28.74-26.94 26.18-25.22L26.18-25.22L26.11-25.09L26.11-25.02L26.11-25.02Q28.93-23.74 30.82-20.86L30.82-20.86L30.82-20.86Q32.70-17.98 32.70-13.38L32.70-13.38L32.70-13.38Q32.70-7.87 29.73-3.94L29.73-3.94L29.73-3.94Q26.75 0 19.71 0L19.71 0L4.99 0ZM19.01-26.43L19.01-26.43Q22.59-26.43 24.64-28.35L24.64-28.35L24.64-28.35Q26.69-30.27 26.69-33.92L26.69-33.92L26.69-33.92Q26.69-41.41 18.62-41.41L18.62-41.41L8.58-41.41L8.58-26.43L19.01-26.43ZM19.58-3.39L19.58-3.39Q23.87-3.39 26.37-5.70L26.37-5.70L26.37-5.70Q28.86-8 28.86-13.63L28.86-13.63L28.86-13.63Q28.86-18.11 26.43-20.51L26.43-20.51L26.43-20.51Q24-22.91 20.67-22.91L20.67-22.91L8.58-22.91L8.58-3.39L19.58-3.39ZM61.82 0L61.82 0Q54.91 0.70 51.84 0.70L51.84 0.70L51.84 0.70Q45.12 0.70 41.15-1.79L41.15-1.79L41.15-1.79Q37.18-4.29 37.18-10.82L37.18-10.82L37.18-16.13L37.18-16.13Q37.18-22.46 41.60-24.64L41.60-24.64L41.60-24.64Q43.71-25.73 46.98-25.73L46.98-25.73L46.98-25.73Q49.98-25.73 53.06-24.74L53.06-24.74L53.06-24.74Q56.13-23.74 58.24-22.14L58.24-22.14L58.24-22.14Q58.24-25.66 56.19-27.74L56.19-27.74L56.19-27.74Q54.14-29.82 48.32-29.82L48.32-29.82L48.51-32.58L48.51-32.58Q54.66-32.58 57.57-30.62L57.57-30.62L57.57-30.62Q60.48-28.67 61.15-25.98L61.15-25.98L61.15-25.98Q61.82-23.30 61.82-19.07L61.82-19.07L61.82 0ZM58.24-19.39L58.24-19.39Q55.62-20.61 52.64-21.50L52.64-21.50L52.64-21.50Q49.66-22.40 47.17-22.40L47.17-22.40L47.17-22.40Q40.70-22.40 40.70-15.94L40.70-15.94L40.70-10.37L40.70-10.37Q40.70-6.21 43.58-4.32L43.58-4.32L43.58-4.32Q46.46-2.43 51.78-2.43L51.78-2.43L51.78-2.43Q54.53-2.43 58.24-2.94L58.24-2.94L58.24-19.39ZM88.32 0L88.32-21.95L88.32-21.95Q88.32-25.86 86.05-27.62L86.05-27.62L86.05-27.62Q83.78-29.38 80.19-29.38L80.19-29.38L80.19-29.38Q78.02-29.38 75.78-28.77L75.78-28.77L75.78-28.77Q73.54-28.16 71.81-27.20L71.81-27.20L71.81 0L68.22 0L68.22-32.06L71.81-32.06L71.55-29.89L71.55-29.89Q73.09-31.23 75.46-31.90L75.46-31.90L75.46-31.90Q77.82-32.58 80.38-32.58L80.38-32.58L80.38-32.58Q83.90-32.58 86.40-31.42L86.40-31.42L86.40-31.42Q88.96-30.27 90.40-27.97L90.40-27.97L90.40-27.97Q91.84-25.66 91.84-22.14L91.84-22.14L91.84 0L88.32 0ZM101.12-22.14L101.12-22.14Q101.12-28.86 106.56-31.36L106.56-31.36L106.56-31.36Q109.18-32.58 112.83-32.58L112.83-32.58L112.83-32.58Q115.20-32.58 117.41-32L117.41-32L117.41-32Q119.62-31.42 121.15-30.34L121.15-30.34L121.15-44.80L124.74-44.80L124.74 0L121.22 0.32L121.22 0.32Q117.06 0.77 114.69 0.77L114.69 0.77L114.69 0.77Q112.32 0.77 110.24 0.32L110.24 0.32L110.24 0.32Q108.16-0.13 106.11-1.15L106.11-1.15L106.11-1.15Q103.81-2.30 102.46-4.54L102.46-4.54L102.46-4.54Q101.12-6.78 101.12-10.05L101.12-10.05L101.12-22.14ZM121.15-27.20L121.15-27.20Q119.42-28.16 117.18-28.77L117.18-28.77L117.18-28.77Q114.94-29.38 112.77-29.38L112.77-29.38L112.77-29.38Q109.18-29.38 106.91-27.62L106.91-27.62L106.91-27.62Q104.64-25.86 104.64-21.95L104.64-21.95L104.64-9.98L104.64-9.98Q104.64-2.50 114.94-2.50L114.94-2.50L114.94-2.50Q117.38-2.50 121.15-3.07L121.15-3.07L121.15-27.20Z" fill="#000000"></path></g></g><style>text {
  font-size: 64px;
  font-family: Arial Black;
  dominant-baseline: central;
  text-anchor: middle;
}</style></svg>