<svg width="241.08505859375px" height="124.4224853515625px" xmlns="http://www.w3.org/2000/svg" viewBox="129.457470703125 12.78875732421875 241.08505859375 124.4224853515625" style="background: rgb(255, 255, 255);" preserveAspectRatio="xMidYMid"><defs><filter id="editing-hover" x="-100%" y="-100%" width="300%" height="300%"><feFlood flood-color="#d88c51" result="flood"></feFlood><feComposite operator="in" in2="SourceAlpha" in="flood" result="shadow"></feComposite><feOffset dx="0.1" dy="0.1" in="SourceGraphic" result="offset-1"></feOffset><feOffset dx="-0.1" dy="-0.1" in="shadow" result="offset-2"></feOffset><feMerge><feMergeNode in="offset-2"></feMergeNode><feMergeNode in="offset-1"></feMergeNode></feMerge></filter></defs><g filter="url(#editing-hover)"><g transform="translate(168.78500175476074, 97.78499984741211)"><path d="M4.99 0L4.99-44.80L26.37-44.80L26.37-41.41L8.58-41.41L8.58-26.43L19.52-26.43L18.05-22.91L8.58-22.91L8.58 0L4.99 0ZM51.14 0L51.39-3.26L51.39-3.26Q49.86-1.34 47.52-0.32L47.52-0.32L47.52-0.32Q45.18 0.70 42.82 0.70L42.82 0.70L42.82 0.70Q30.78 0.70 30.78-11.01L30.78-11.01L30.78-32.06L34.37-32.06L34.37-10.56L34.37-10.56Q34.37-6.46 36.64-4.48L36.64-4.48L36.64-4.48Q38.91-2.50 42.82-2.50L42.82-2.50L42.82-2.50Q46.66-2.50 48.86-4.45L48.86-4.45L48.86-4.45Q51.07-6.40 51.07-10.56L51.07-10.56L51.07-32.06L54.66-32.06L54.66 0L51.14 0ZM81.28 0L81.28-21.95L81.28-21.95Q81.28-25.86 79.01-27.62L79.01-27.62L79.01-27.62Q76.74-29.38 73.15-29.38L73.15-29.38L73.15-29.38Q70.98-29.38 68.74-28.77L68.74-28.77L68.74-28.77Q66.50-28.16 64.77-27.20L64.77-27.20L64.77 0L61.18 0L61.18-32.06L64.77-32.06L64.51-29.89L64.51-29.89Q66.05-31.23 68.42-31.90L68.42-31.90L68.42-31.90Q70.78-32.58 73.34-32.58L73.34-32.58L73.34-32.58Q76.86-32.58 79.36-31.42L79.36-31.42L79.36-31.42Q81.92-30.27 83.36-27.97L83.36-27.97L83.36-27.97Q84.80-25.66 84.80-22.14L84.80-22.14L84.80 0L81.28 0ZM113.28 0L113.28-21.95L113.28-21.95Q113.28-25.86 111.01-27.62L111.01-27.62L111.01-27.62Q108.74-29.38 105.15-29.38L105.15-29.38L105.15-29.38Q102.98-29.38 100.74-28.77L100.74-28.77L100.74-28.77Q98.50-28.16 96.77-27.20L96.77-27.20L96.77 0L93.18 0L93.18-32.06L96.77-32.06L96.51-29.89L96.51-29.89Q98.05-31.23 100.42-31.90L100.42-31.90L100.42-31.90Q102.78-32.58 105.34-32.58L105.34-32.58L105.34-32.58Q108.86-32.58 111.36-31.42L111.36-31.42L111.36-31.42Q113.92-30.27 115.36-27.97L115.36-27.97L115.36-27.97Q116.80-25.66 116.80-22.14L116.80-22.14L116.80 0L113.28 0ZM144.77-2.24L144.77-2.24Q142.46-0.77 139.52 0L139.52 0L139.52 0Q136.58 0.77 133.63 0.77L133.63 0.77L133.63 0.77Q128.90 0.77 126.11-1.57L126.11-1.57L126.11-1.57Q123.33-3.90 123.33-8.58L123.33-8.58L123.33-21.70L123.33-21.70Q123.33-26.88 126.56-29.76L126.56-29.76L126.56-29.76Q129.79-32.64 135.10-32.64L135.10-32.64L135.10-32.64Q140.42-32.64 143.39-29.79L143.39-29.79L143.39-29.79Q146.37-26.94 146.37-21.89L146.37-21.89L146.37-13.57L126.91-12.48L126.91-8.58L126.91-8.58Q126.91-5.50 128.90-3.97L128.90-3.97L128.90-3.97Q130.88-2.43 134.08-2.43L134.08-2.43L134.08-2.43Q138.56-2.43 143.36-4.99L143.36-4.99L144.77-2.24ZM142.78-22.34L142.78-22.34Q142.78-26.30 140.29-27.94L140.29-27.94L140.29-27.94Q137.79-29.57 135.04-29.57L135.04-29.57L135.04-29.57Q131.52-29.57 129.22-27.65L129.22-27.65L129.22-27.65Q126.91-25.73 126.91-21.63L126.91-21.63L126.91-16L142.78-16.77L142.78-22.34ZM153.86 0L153.86-44.80L157.44-44.80L157.44 0L153.86 0Z" fill="#000000"></path></g></g><style>text {
  font-size: 64px;
  font-family: Arial Black;
  dominant-baseline: central;
  text-anchor: middle;
}</style></svg>