<svg width="295.4px" height="124.4224853515625px" xmlns="http://www.w3.org/2000/svg" viewBox="102.30000000000001 12.78875732421875 295.4 124.4224853515625" style="background: rgb(255, 255, 255);" preserveAspectRatio="xMidYMid"><defs><filter id="editing-hover" x="-100%" y="-100%" width="300%" height="300%"><feFlood flood-color="#d88c51" result="flood"></feFlood><feComposite operator="in" in2="SourceAlpha" in="flood" result="shadow"></feComposite><feOffset dx="0.1" dy="0.1" in="SourceGraphic" result="offset-1"></feOffset><feOffset dx="-0.1" dy="-0.1" in="shadow" result="offset-2"></feOffset><feMerge><feMergeNode in="offset-2"></feMergeNode><feMergeNode in="offset-1"></feMergeNode></feMerge></filter></defs><g filter="url(#editing-hover)"><g transform="translate(147.57000541687012, 98.10499954223633)"><path d="M35.71 0L35.71-34.24L24.06 0L20.16 0L8.58-34.24L8.58 0L4.99 0L4.99-44.80L8.58-44.80L22.08-5.50L35.71-44.80L39.30-44.80L39.30 0L35.71 0ZM71.42 0L71.42 0Q64.51 0.70 61.44 0.70L61.44 0.70L61.44 0.70Q54.72 0.70 50.75-1.79L50.75-1.79L50.75-1.79Q46.78-4.29 46.78-10.82L46.78-10.82L46.78-16.13L46.78-16.13Q46.78-22.46 51.20-24.64L51.20-24.64L51.20-24.64Q53.31-25.73 56.58-25.73L56.58-25.73L56.58-25.73Q59.58-25.73 62.66-24.74L62.66-24.74L62.66-24.74Q65.73-23.74 67.84-22.14L67.84-22.14L67.84-22.14Q67.84-25.66 65.79-27.74L65.79-27.74L65.79-27.74Q63.74-29.82 57.92-29.82L57.92-29.82L58.11-32.58L58.11-32.58Q64.26-32.58 67.17-30.62L67.17-30.62L67.17-30.62Q70.08-28.67 70.75-25.98L70.75-25.98L70.75-25.98Q71.42-23.30 71.42-19.07L71.42-19.07L71.42 0ZM67.84-19.39L67.84-19.39Q65.22-20.61 62.24-21.50L62.24-21.50L62.24-21.50Q59.26-22.40 56.77-22.40L56.77-22.40L56.77-22.40Q50.30-22.40 50.30-15.94L50.30-15.94L50.30-10.37L50.30-10.37Q50.30-6.21 53.18-4.32L53.18-4.32L53.18-4.32Q56.06-2.43 61.38-2.43L61.38-2.43L61.38-2.43Q64.13-2.43 67.84-2.94L67.84-2.94L67.84-19.39ZM97.92 0L97.92-21.95L97.92-21.95Q97.92-25.86 95.65-27.62L95.65-27.62L95.65-27.62Q93.38-29.38 89.79-29.38L89.79-29.38L89.79-29.38Q87.62-29.38 85.38-28.77L85.38-28.77L85.38-28.77Q83.14-28.16 81.41-27.20L81.41-27.20L81.41 0L77.82 0L77.82-32.06L81.41-32.06L81.15-29.89L81.15-29.89Q82.69-31.23 85.06-31.90L85.06-31.90L85.06-31.90Q87.42-32.58 89.98-32.58L89.98-32.58L89.98-32.58Q93.50-32.58 96.00-31.42L96.00-31.42L96.00-31.42Q98.56-30.27 100.00-27.97L100.00-27.97L100.00-27.97Q101.44-25.66 101.44-22.14L101.44-22.14L101.44 0L97.92 0ZM110.72-22.14L110.72-22.14Q110.72-28.86 116.16-31.36L116.16-31.36L116.16-31.36Q118.78-32.58 122.43-32.58L122.43-32.58L122.43-32.58Q124.80-32.58 127.01-32L127.01-32L127.01-32Q129.22-31.42 130.75-30.34L130.75-30.34L130.75-44.80L134.34-44.80L134.34 0L130.82 0.32L130.82 0.32Q126.66 0.77 124.29 0.77L124.29 0.77L124.29 0.77Q121.92 0.77 119.84 0.32L119.84 0.32L119.84 0.32Q117.76-0.13 115.71-1.15L115.71-1.15L115.71-1.15Q113.41-2.30 112.06-4.54L112.06-4.54L112.06-4.54Q110.72-6.78 110.72-10.05L110.72-10.05L110.72-22.14ZM130.75-27.20L130.75-27.20Q129.02-28.16 126.78-28.77L126.78-28.77L126.78-28.77Q124.54-29.38 122.37-29.38L122.37-29.38L122.37-29.38Q118.78-29.38 116.51-27.62L116.51-27.62L116.51-27.62Q114.24-25.86 114.24-21.95L114.24-21.95L114.24-9.98L114.24-9.98Q114.24-2.50 124.54-2.50L124.54-2.50L124.54-2.50Q126.98-2.50 130.75-3.07L130.75-3.07L130.75-27.20ZM140.35 0L140.35-32.06L143.94-32.06L143.74-29.82L143.74-29.82Q146.75-32.64 151.62-32.64L151.62-32.64L151.62-32.64Q153.34-32.64 156.35-32.06L156.35-32.06L155.39-28.80L155.39-28.80Q153.34-29.44 151.10-29.44L151.10-29.44L151.10-29.44Q148.16-29.44 146.05-28.35L146.05-28.35L146.05-28.35Q143.94-27.26 143.94-25.09L143.94-25.09L143.94 0L140.35 0ZM164.93-41.15L164.93-41.15Q164.10-41.15 163.42-41.82L163.42-41.82L163.42-41.82Q162.75-42.50 162.75-43.33L162.75-43.33L162.75-43.33Q162.75-44.16 163.39-44.80L163.39-44.80L163.39-44.80Q164.03-45.44 164.93-45.44L164.93-45.44L164.93-45.44Q165.82-45.44 166.43-44.83L166.43-44.83L166.43-44.83Q167.04-44.22 167.04-43.33L167.04-43.33L167.04-43.33Q167.04-42.43 166.40-41.79L166.40-41.79L166.40-41.79Q165.76-41.15 164.93-41.15L164.93-41.15ZM163.07 0L163.07-32.06L166.66-32.06L166.66 0L163.07 0ZM196.35 0L196.35-21.95L196.35-21.95Q196.35-25.86 194.08-27.62L194.08-27.62L194.08-27.62Q191.81-29.38 188.22-29.38L188.22-29.38L188.22-29.38Q186.05-29.38 183.81-28.77L183.81-28.77L183.81-28.77Q181.57-28.16 179.84-27.20L179.84-27.20L179.84 0L176.26 0L176.26-32.06L179.84-32.06L179.58-29.89L179.58-29.89Q181.12-31.23 183.49-31.90L183.49-31.90L183.49-31.90Q185.86-32.58 188.42-32.58L188.42-32.58L188.42-32.58Q191.94-32.58 194.43-31.42L194.43-31.42L194.43-31.42Q196.99-30.27 198.43-27.97L198.43-27.97L198.43-27.97Q199.87-25.66 199.87-22.14L199.87-22.14L199.87 0L196.35 0Z" fill="#000000"></path></g></g><style>text {
  font-size: 64px;
  font-family: Arial Black;
  dominant-baseline: central;
  text-anchor: middle;
}</style></svg>