<svg width="162.417529296875px" height="124.4224853515625px" xmlns="http://www.w3.org/2000/svg" viewBox="168.7912353515625 12.78875732421875 162.417529296875 124.4224853515625" style="background: rgb(255, 255, 255);" preserveAspectRatio="xMidYMid"><defs><filter id="editing-hover" x="-100%" y="-100%" width="300%" height="300%"><feFlood flood-color="#d88c51" result="flood"></feFlood><feComposite operator="in" in2="SourceAlpha" in="flood" result="shadow"></feComposite><feOffset dx="0.1" dy="0.1" in="SourceGraphic" result="offset-1"></feOffset><feOffset dx="-0.1" dy="-0.1" in="shadow" result="offset-2"></feOffset><feMerge><feMergeNode in="offset-2"></feMergeNode><feMergeNode in="offset-1"></feMergeNode></feMerge></filter></defs><g filter="url(#editing-hover)"><g transform="translate(196.2100009918213, 97.75)"><path d="M35.71 0L35.71-34.24L24.06 0L20.16 0L8.58-34.24L8.58 0L4.99 0L4.99-44.80L8.58-44.80L22.08-5.50L35.71-44.80L39.30-44.80L39.30 0L35.71 0ZM71.42 0L71.42 0Q64.51 0.70 61.44 0.70L61.44 0.70L61.44 0.70Q54.72 0.70 50.75-1.79L50.75-1.79L50.75-1.79Q46.78-4.29 46.78-10.82L46.78-10.82L46.78-16.13L46.78-16.13Q46.78-22.46 51.20-24.64L51.20-24.64L51.20-24.64Q53.31-25.73 56.58-25.73L56.58-25.73L56.58-25.73Q59.58-25.73 62.66-24.74L62.66-24.74L62.66-24.74Q65.73-23.74 67.84-22.14L67.84-22.14L67.84-22.14Q67.84-25.66 65.79-27.74L65.79-27.74L65.79-27.74Q63.74-29.82 57.92-29.82L57.92-29.82L58.11-32.58L58.11-32.58Q64.26-32.58 67.17-30.62L67.17-30.62L67.17-30.62Q70.08-28.67 70.75-25.98L70.75-25.98L70.75-25.98Q71.42-23.30 71.42-19.07L71.42-19.07L71.42 0ZM67.84-19.39L67.84-19.39Q65.22-20.61 62.24-21.50L62.24-21.50L62.24-21.50Q59.26-22.40 56.77-22.40L56.77-22.40L56.77-22.40Q50.30-22.40 50.30-15.94L50.30-15.94L50.30-10.37L50.30-10.37Q50.30-6.21 53.18-4.32L53.18-4.32L53.18-4.32Q56.06-2.43 61.38-2.43L61.38-2.43L61.38-2.43Q64.13-2.43 67.84-2.94L67.84-2.94L67.84-19.39ZM102.59-11.78L102.59-11.78Q102.59-6.40 99.65-2.88L99.65-2.88L99.65-2.88Q96.70 0.64 90.75 0.64L90.75 0.64L90.75 0.64Q84.80 0.64 81.76-2.91L81.76-2.91L81.76-2.91Q78.72-6.46 78.72-11.78L78.72-11.78L78.72-20.22L78.72-20.22Q78.72-26.30 81.82-29.54L81.82-29.54L81.82-29.54Q84.93-32.77 90.75-32.77L90.75-32.77L90.75-32.77Q96.32-32.77 99.46-29.41L99.46-29.41L99.46-29.41Q102.59-26.05 102.59-20.22L102.59-20.22L102.59-11.78ZM99.01-20.22L99.01-20.22Q99.01-25.02 96.80-27.26L96.80-27.26L96.80-27.26Q94.59-29.50 90.75-29.50L90.75-29.50L90.75-29.50Q86.78-29.50 84.54-27.26L84.54-27.26L84.54-27.26Q82.30-25.02 82.30-20.22L82.30-20.22L82.30-11.14L82.30-11.14Q82.30-7.30 84.58-4.93L84.58-4.93L84.58-4.93Q86.85-2.56 90.75-2.56L90.75-2.56L90.75-2.56Q94.72-2.56 96.86-4.90L96.86-4.90L96.86-4.90Q99.01-7.23 99.01-11.14L99.01-11.14L99.01-20.22Z" fill="#000000"></path></g></g><style>text {
  font-size: 64px;
  font-family: Arial Black;
  dominant-baseline: central;
  text-anchor: middle;
}</style></svg>