<svg width="447.72001953125px" height="124.4224853515625px" xmlns="http://www.w3.org/2000/svg" viewBox="26.139990234375006 12.78875732421875 447.72001953125 124.4224853515625" style="background: rgb(255, 255, 255);" preserveAspectRatio="xMidYMid"><defs><filter id="editing-hover" x="-100%" y="-100%" width="300%" height="300%"><feFlood flood-color="#d88c51" result="flood"></feFlood><feComposite operator="in" in2="SourceAlpha" in="flood" result="shadow"></feComposite><feOffset dx="0.1" dy="0.1" in="SourceGraphic" result="offset-1"></feOffset><feOffset dx="-0.1" dy="-0.1" in="shadow" result="offset-2"></feOffset><feMerge><feMergeNode in="offset-2"></feMergeNode><feMergeNode in="offset-1"></feMergeNode></feMerge></filter></defs><g filter="url(#editing-hover)"><g transform="translate(88.75499534606934, 104.11999893188477)"><path d="M32.90 0L8.58-38.21L8.58 0L4.99 0L4.99-44.80L8.58-44.80L32.90-6.59L32.90-44.80L36.48-44.80L36.48 0L32.90 0ZM70.46-11.78L70.46-11.78Q70.46-6.40 67.52-2.88L67.52-2.88L67.52-2.88Q64.58 0.64 58.62 0.64L58.62 0.64L58.62 0.64Q52.67 0.64 49.63-2.91L49.63-2.91L49.63-2.91Q46.59-6.46 46.59-11.78L46.59-11.78L46.59-20.22L46.59-20.22Q46.59-26.30 49.70-29.54L49.70-29.54L49.70-29.54Q52.80-32.77 58.62-32.77L58.62-32.77L58.62-32.77Q64.19-32.77 67.33-29.41L67.33-29.41L67.33-29.41Q70.46-26.05 70.46-20.22L70.46-20.22L70.46-11.78ZM66.88-20.22L66.88-20.22Q66.88-25.02 64.67-27.26L64.67-27.26L64.67-27.26Q62.46-29.50 58.62-29.50L58.62-29.50L58.62-29.50Q54.66-29.50 52.42-27.26L52.42-27.26L52.42-27.26Q50.18-25.02 50.18-20.22L50.18-20.22L50.18-11.14L50.18-11.14Q50.18-7.30 52.45-4.93L52.45-4.93L52.45-4.93Q54.72-2.56 58.62-2.56L58.62-2.56L58.62-2.56Q62.59-2.56 64.74-4.90L64.74-4.90L64.74-4.90Q66.88-7.23 66.88-11.14L66.88-11.14L66.88-20.22ZM82.18 0.83L82.18 0.83Q78.59-0.19 76.99-2.43L76.99-2.43L76.99-2.43Q75.39-4.67 75.39-8.45L75.39-8.45L75.39-44.80L78.98-44.80L78.98-32.06L86.66-32.06L85.12-28.67L78.98-28.67L78.98-8.45L78.98-8.45Q78.98-3.33 83.20-1.92L83.20-1.92L82.18 0.83ZM111.04-0.38L111.04-0.38Q107.07 0.64 103.36 0.64L103.36 0.64L103.36 0.64Q99.90 0.64 97.60-0.13L97.60-0.13L97.60-0.13Q93.82-1.41 92.13-4.06L92.13-4.06L92.13-4.06Q90.43-6.72 90.43-11.52L90.43-11.52L90.43-19.71L90.43-19.71Q90.43-26.05 93.76-29.34L93.76-29.34L93.76-29.34Q97.09-32.64 102.34-32.64L102.34-32.64L102.34-32.64Q106.50-32.64 110.91-30.59L110.91-30.59L109.89-27.97L109.89-27.97Q106.24-29.44 102.85-29.44L102.85-29.44L102.85-29.44Q98.88-29.44 96.45-27.17L96.45-27.17L96.45-27.17Q94.02-24.90 94.02-20.10L94.02-20.10L94.02-10.82L94.02-10.82Q94.02-6.40 96.67-4.42L96.67-4.42L96.67-4.42Q99.33-2.43 103.74-2.43L103.74-2.43L103.74-2.43Q106.62-2.43 110.27-3.26L110.27-3.26L111.04-0.38ZM136.83 0L136.83-21.95L136.83-21.95Q136.83-25.86 134.56-27.62L134.56-27.62L134.56-27.62Q132.29-29.38 128.70-29.38L128.70-29.38L128.70-29.38Q126.53-29.38 124.29-28.77L124.29-28.77L124.29-28.77Q122.05-28.16 120.32-27.20L120.32-27.20L120.32 0L116.74 0L116.74-44.80L120.32-44.80L120.32-30.34L120.32-30.34Q121.92-31.42 124.16-32.03L124.16-32.03L124.16-32.03Q126.40-32.64 128.83-32.64L128.83-32.64L128.83-32.64Q132.16-32.64 134.91-31.42L134.91-31.42L134.91-31.42Q137.47-30.27 138.91-27.97L138.91-27.97L138.91-27.97Q140.35-25.66 140.35-22.14L140.35-22.14L140.35 0L136.83 0ZM166.98 0L166.98-44.80L170.56-44.80L170.56-3.20L190.08-3.20L190.08 0L166.98 0ZM217.15 0L217.15 0Q210.24 0.70 207.17 0.70L207.17 0.70L207.17 0.70Q200.45 0.70 196.48-1.79L196.48-1.79L196.48-1.79Q192.51-4.29 192.51-10.82L192.51-10.82L192.51-16.13L192.51-16.13Q192.51-22.46 196.93-24.64L196.93-24.64L196.93-24.64Q199.04-25.73 202.30-25.73L202.30-25.73L202.30-25.73Q205.31-25.73 208.38-24.74L208.38-24.74L208.38-24.74Q211.46-23.74 213.57-22.14L213.57-22.14L213.57-22.14Q213.57-25.66 211.52-27.74L211.52-27.74L211.52-27.74Q209.47-29.82 203.65-29.82L203.65-29.82L203.84-32.58L203.84-32.58Q209.98-32.58 212.90-30.62L212.90-30.62L212.90-30.62Q215.81-28.67 216.48-25.98L216.48-25.98L216.48-25.98Q217.15-23.30 217.15-19.07L217.15-19.07L217.15 0ZM213.57-19.39L213.57-19.39Q210.94-20.61 207.97-21.50L207.97-21.50L207.97-21.50Q204.99-22.40 202.50-22.40L202.50-22.40L202.50-22.40Q196.03-22.40 196.03-15.94L196.03-15.94L196.03-10.37L196.03-10.37Q196.03-6.21 198.91-4.32L198.91-4.32L198.91-4.32Q201.79-2.43 207.10-2.43L207.10-2.43L207.10-2.43Q209.86-2.43 213.57-2.94L213.57-2.94L213.57-19.39ZM224.45 13.44L224.45-32.06L228.03-32.06L227.71-28.80L227.71-28.80Q229.44-30.66 231.78-31.62L231.78-31.62L231.78-31.62Q234.11-32.58 236.42-32.58L236.42-32.58L236.42-32.58Q242.37-32.58 245.47-29.12L245.47-29.12L245.47-29.12Q248.58-25.66 248.58-20.16L248.58-20.16L248.58-11.26L248.58-11.26Q248.58-5.44 245.31-2.34L245.31-2.34L245.31-2.34Q242.05 0.77 236.67 0.77L236.67 0.77L236.67 0.77Q233.92 0.77 231.81 0L231.81 0L231.81 0Q229.70-0.77 228.03-2.69L228.03-2.69L228.03 12.03L224.45 13.44ZM244.99-20.42L244.99-20.42Q244.99-25.09 242.53-27.20L242.53-27.20L242.53-27.20Q240.06-29.31 236.67-29.31L236.67-29.31L236.67-29.31Q233.22-29.31 230.72-27.23L230.72-27.23L230.72-27.23Q228.22-25.15 228.03-20.74L228.03-20.74L228.03-10.62L228.03-10.62Q228.03-6.46 230.40-4.48L230.40-4.48L230.40-4.48Q232.77-2.50 236.67-2.50L236.67-2.50L236.67-2.50Q240.19-2.50 242.59-4.58L242.59-4.58L242.59-4.58Q244.99-6.66 244.99-10.62L244.99-10.62L244.99-20.42ZM274.37-2.24L274.37-2.24Q272.06-0.77 269.12 0L269.12 0L269.12 0Q266.18 0.77 263.23 0.77L263.23 0.77L263.23 0.77Q258.50 0.77 255.71-1.57L255.71-1.57L255.71-1.57Q252.93-3.90 252.93-8.58L252.93-8.58L252.93-21.70L252.93-21.70Q252.93-26.88 256.16-29.76L256.16-29.76L256.16-29.76Q259.39-32.64 264.70-32.64L264.70-32.64L264.70-32.64Q270.02-32.64 272.99-29.79L272.99-29.79L272.99-29.79Q275.97-26.94 275.97-21.89L275.97-21.89L275.97-13.57L256.51-12.48L256.51-8.58L256.51-8.58Q256.51-5.50 258.50-3.97L258.50-3.97L258.50-3.97Q260.48-2.43 263.68-2.43L263.68-2.43L263.68-2.43Q268.16-2.43 272.96-4.99L272.96-4.99L274.37-2.24ZM272.38-22.34L272.38-22.34Q272.38-26.30 269.89-27.94L269.89-27.94L269.89-27.94Q267.39-29.57 264.64-29.57L264.64-29.57L264.64-29.57Q261.12-29.57 258.82-27.65L258.82-27.65L258.82-27.65Q256.51-25.73 256.51-21.63L256.51-21.63L256.51-16L272.38-16.77L272.38-22.34ZM283.46 0L283.46-44.80L287.04-44.80L287.04 0L283.46 0ZM297.86-8.13L297.86-8.13Q298.24-5.25 300.74-3.81L300.74-3.81L300.74-3.81Q303.23-2.37 306.30-2.37L306.30-2.37L306.30-2.37Q309.18-2.37 311.55-3.68L311.55-3.68L311.55-3.68Q313.92-4.99 313.92-7.94L313.92-7.94L313.92-7.94Q313.92-9.86 312.80-11.10L312.80-11.10L312.80-11.10Q311.68-12.35 310.02-13.12L310.02-13.12L310.02-13.12Q308.35-13.89 305.54-14.78L305.54-14.78L305.54-14.78Q302.40-15.81 300.42-16.70L300.42-16.70L300.42-16.70Q298.43-17.60 296.96-19.23L296.96-19.23L296.96-19.23Q295.49-20.86 295.23-23.36L295.23-23.36L295.17-24.13L295.17-24.13Q295.17-26.24 296.35-28.26L296.35-28.26L296.35-28.26Q297.54-30.27 300-31.55L300-31.55L300-31.55Q302.46-32.83 306.18-32.83L306.18-32.83L306.18-32.83Q308.22-32.83 309.79-32.42L309.79-32.42L309.79-32.42Q311.36-32 312.26-31.55L312.26-31.55L312.26-31.55Q313.15-31.10 313.34-30.98L313.34-30.98L312.13-28.03L312.13-28.03Q311.94-28.16 311.20-28.54L311.20-28.54L311.20-28.54Q310.46-28.93 309.12-29.31L309.12-29.31L309.12-29.31Q307.78-29.70 306.18-29.70L306.18-29.70L306.18-29.70Q303.10-29.70 300.93-28.26L300.93-28.26L300.93-28.26Q298.75-26.82 298.75-24.26L298.75-24.26L298.75-24.26Q298.75-21.82 300.74-20.54L300.74-20.54L300.74-20.54Q302.72-19.26 306.82-17.98L306.82-17.98L306.82-17.98Q310.27-16.83 312.38-15.81L312.38-15.81L312.38-15.81Q314.50-14.78 316-12.90L316-12.90L316-12.90Q317.50-11.01 317.50-8L317.50-8L317.50-8Q317.50-4.16 314.66-1.60L314.66-1.60L314.66-1.60Q311.81 0.96 306.30 0.96L306.30 0.96L306.30 0.96Q302.66 0.96 300-0.29L300-0.29L300-0.29Q297.34-1.54 295.97-3.58L295.97-3.58L295.97-3.58Q294.59-5.63 294.46-8.13L294.46-8.13L297.86-8.13Z" fill="#000000"></path></g></g><style>text {
  font-size: 64px;
  font-family: Arial Black;
  dominant-baseline: central;
  text-anchor: middle;
}</style></svg>