<svg width="166.66748046875px" height="124.4224853515625px" xmlns="http://www.w3.org/2000/svg" viewBox="166.666259765625 12.78875732421875 166.66748046875 124.4224853515625" style="background: rgb(255, 255, 255);" preserveAspectRatio="xMidYMid"><defs><filter id="editing-hover" x="-100%" y="-100%" width="300%" height="300%"><feFlood flood-color="#d88c51" result="flood"></feFlood><feComposite operator="in" in2="SourceAlpha" in="flood" result="shadow"></feComposite><feOffset dx="0.1" dy="0.1" in="SourceGraphic" result="offset-1"></feOffset><feOffset dx="-0.1" dy="-0.1" in="shadow" result="offset-2"></feOffset><feMerge><feMergeNode in="offset-2"></feMergeNode><feMergeNode in="offset-1"></feMergeNode></feMerge></filter></defs><g filter="url(#editing-hover)"><g transform="translate(193.29500007629395, 97.71999931335449)"><path d="M4.99 0L4.99-44.80L20.74-44.80L20.74-44.80Q26.82-44.80 29.79-41.09L29.79-41.09L29.79-41.09Q32.77-37.38 32.77-31.10L32.77-31.10L32.77-31.10Q32.77-27.07 32.13-23.84L32.13-23.84L32.13-23.84Q31.49-20.61 28.93-18.14L28.93-18.14L28.93-18.14Q26.37-15.68 21.18-15.68L21.18-15.68L8.58-15.68L8.58 0L4.99 0ZM21.25-19.20L21.25-19.20Q24.83-19.20 26.59-21.12L26.59-21.12L26.59-21.12Q28.35-23.04 28.77-25.47L28.77-25.47L28.77-25.47Q29.18-27.90 29.18-30.91L29.18-30.91L29.18-30.91Q29.18-36.16 27.01-38.78L27.01-38.78L27.01-38.78Q24.83-41.41 20.99-41.41L20.99-41.41L8.58-41.41L8.58-19.20L21.25-19.20ZM63.74-11.78L63.74-11.78Q63.74-6.40 60.80-2.88L60.80-2.88L60.80-2.88Q57.86 0.64 51.90 0.64L51.90 0.64L51.90 0.64Q45.95 0.64 42.91-2.91L42.91-2.91L42.91-2.91Q39.87-6.46 39.87-11.78L39.87-11.78L39.87-20.22L39.87-20.22Q39.87-26.30 42.98-29.54L42.98-29.54L42.98-29.54Q46.08-32.77 51.90-32.77L51.90-32.77L51.90-32.77Q57.47-32.77 60.61-29.41L60.61-29.41L60.61-29.41Q63.74-26.05 63.74-20.22L63.74-20.22L63.74-11.78ZM60.16-20.22L60.16-20.22Q60.16-25.02 57.95-27.26L57.95-27.26L57.95-27.26Q55.74-29.50 51.90-29.50L51.90-29.50L51.90-29.50Q47.94-29.50 45.70-27.26L45.70-27.26L45.70-27.26Q43.46-25.02 43.46-20.22L43.46-20.22L43.46-11.14L43.46-11.14Q43.46-7.30 45.73-4.93L45.73-4.93L45.73-4.93Q48-2.56 51.90-2.56L51.90-2.56L51.90-2.56Q55.87-2.56 58.02-4.90L58.02-4.90L58.02-4.90Q60.16-7.23 60.16-11.14L60.16-11.14L60.16-20.22ZM70.85 0L70.85-44.80L74.43-44.80L74.43 0L70.85 0ZM108.42-11.78L108.42-11.78Q108.42-6.40 105.47-2.88L105.47-2.88L105.47-2.88Q102.53 0.64 96.58 0.64L96.58 0.64L96.58 0.64Q90.62 0.64 87.58-2.91L87.58-2.91L87.58-2.91Q84.54-6.46 84.54-11.78L84.54-11.78L84.54-20.22L84.54-20.22Q84.54-26.30 87.65-29.54L87.65-29.54L87.65-29.54Q90.75-32.77 96.58-32.77L96.58-32.77L96.58-32.77Q102.14-32.77 105.28-29.41L105.28-29.41L105.28-29.41Q108.42-26.05 108.42-20.22L108.42-20.22L108.42-11.78ZM104.83-20.22L104.83-20.22Q104.83-25.02 102.62-27.26L102.62-27.26L102.62-27.26Q100.42-29.50 96.58-29.50L96.58-29.50L96.58-29.50Q92.61-29.50 90.37-27.26L90.37-27.26L90.37-27.26Q88.13-25.02 88.13-20.22L88.13-20.22L88.13-11.14L88.13-11.14Q88.13-7.30 90.40-4.93L90.40-4.93L90.40-4.93Q92.67-2.56 96.58-2.56L96.58-2.56L96.58-2.56Q100.54-2.56 102.69-4.90L102.69-4.90L102.69-4.90Q104.83-7.23 104.83-11.14L104.83-11.14L104.83-20.22Z" fill="#000000"></path></g></g><style>text {
  font-size: 64px;
  font-family: Arial Black;
  dominant-baseline: central;
  text-anchor: middle;
}</style></svg>