<svg width="270.324951171875px" height="124.4224853515625px" xmlns="http://www.w3.org/2000/svg" viewBox="114.8375244140625 12.78875732421875 270.324951171875 124.4224853515625" style="background: rgb(255, 255, 255);" preserveAspectRatio="xMidYMid"><defs><filter id="editing-hover" x="-100%" y="-100%" width="300%" height="300%"><feFlood flood-color="#d88c51" result="flood"></feFlood><feComposite operator="in" in2="SourceAlpha" in="flood" result="shadow"></feComposite><feOffset dx="0.1" dy="0.1" in="SourceGraphic" result="offset-1"></feOffset><feOffset dx="-0.1" dy="-0.1" in="shadow" result="offset-2"></feOffset><feMerge><feMergeNode in="offset-2"></feMergeNode><feMergeNode in="offset-1"></feMergeNode></feMerge></filter></defs><g filter="url(#editing-hover)"><g transform="translate(155.475004196167, 104.11999893188477)"><path d="M29.18 0L23.74-15.87L23.74-15.87Q22.59-15.68 21.18-15.68L21.18-15.68L8.58-15.68L8.58 0L4.99 0L4.99-44.80L20.74-44.80L20.74-44.80Q26.82-44.80 29.79-41.09L29.79-41.09L29.79-41.09Q32.77-37.38 32.77-31.10L32.77-31.10L32.77-31.10Q32.77-26.30 31.71-22.59L31.71-22.59L31.71-22.59Q30.66-18.88 27.14-16.96L27.14-16.96L32.83 0L29.18 0ZM21.25-19.20L21.25-19.20Q24.83-19.20 26.59-21.12L26.59-21.12L26.59-21.12Q28.35-23.04 28.77-25.47L28.77-25.47L28.77-25.47Q29.18-27.90 29.18-30.91L29.18-30.91L29.18-30.91Q29.18-36.16 27.01-38.78L27.01-38.78L27.01-38.78Q24.83-41.41 20.99-41.41L20.99-41.41L8.58-41.41L8.58-19.20L21.25-19.20ZM59.78-2.24L59.78-2.24Q57.47-0.77 54.53 0L54.53 0L54.53 0Q51.58 0.77 48.64 0.77L48.64 0.77L48.64 0.77Q43.90 0.77 41.12-1.57L41.12-1.57L41.12-1.57Q38.34-3.90 38.34-8.58L38.34-8.58L38.34-21.70L38.34-21.70Q38.34-26.88 41.57-29.76L41.57-29.76L41.57-29.76Q44.80-32.64 50.11-32.64L50.11-32.64L50.11-32.64Q55.42-32.64 58.40-29.79L58.40-29.79L58.40-29.79Q61.38-26.94 61.38-21.89L61.38-21.89L61.38-13.57L41.92-12.48L41.92-8.58L41.92-8.58Q41.92-5.50 43.90-3.97L43.90-3.97L43.90-3.97Q45.89-2.43 49.09-2.43L49.09-2.43L49.09-2.43Q53.57-2.43 58.37-4.99L58.37-4.99L59.78-2.24ZM57.79-22.34L57.79-22.34Q57.79-26.30 55.30-27.94L55.30-27.94L55.30-27.94Q52.80-29.57 50.05-29.57L50.05-29.57L50.05-29.57Q46.53-29.57 44.22-27.65L44.22-27.65L44.22-27.65Q41.92-25.73 41.92-21.63L41.92-21.63L41.92-16L57.79-16.77L57.79-22.34ZM82.56 10.69L82.56 10.69Q86.78 9.09 86.78 4.03L86.78 4.03L86.78-3.90L86.78-3.90Q84.10 0.77 78.14 0.77L78.14 0.77L78.14 0.77Q72.51 0.77 69.38-2.30L69.38-2.30L69.38-2.30Q66.24-5.38 66.24-11.26L66.24-11.26L66.24-20.80L66.24-20.80Q66.24-26.43 69.54-29.54L69.54-29.54L69.54-29.54Q72.83-32.64 78.40-32.64L78.40-32.64L78.40-32.64Q84.35-32.64 87.04-28.35L87.04-28.35L86.78-32.06L90.37-32.06L90.37 4.10L90.37 4.10Q90.37 7.94 88.77 10.11L88.77 10.11L88.77 10.11Q87.17 12.29 83.52 13.44L83.52 13.44L82.56 10.69ZM86.78-21.50L86.78-21.50Q86.78-25.47 84.22-27.42L84.22-27.42L84.22-27.42Q81.66-29.38 78.14-29.38L78.14-29.38L78.14-29.38Q74.75-29.38 72.29-27.30L72.29-27.30L72.29-27.30Q69.82-25.22 69.82-20.48L69.82-20.48L69.82-10.69L69.82-10.69Q69.82-6.66 72.10-4.61L72.10-4.61L72.10-4.61Q74.37-2.56 78.14-2.56L78.14-2.56L78.14-2.56Q81.73-2.56 84.26-4.77L84.26-4.77L84.26-4.77Q86.78-6.98 86.78-11.07L86.78-11.07L86.78-21.50ZM115.20 0L115.46-3.26L115.46-3.26Q113.92-1.34 111.58-0.32L111.58-0.32L111.58-0.32Q109.25 0.70 106.88 0.70L106.88 0.70L106.88 0.70Q94.85 0.70 94.85-11.01L94.85-11.01L94.85-32.06L98.43-32.06L98.43-10.56L98.43-10.56Q98.43-6.46 100.70-4.48L100.70-4.48L100.70-4.48Q102.98-2.50 106.88-2.50L106.88-2.50L106.88-2.50Q110.72-2.50 112.93-4.45L112.93-4.45L112.93-4.45Q115.14-6.40 115.14-10.56L115.14-10.56L115.14-32.06L118.72-32.06L118.72 0L115.20 0ZM126.14 0L126.14-44.80L129.73-44.80L129.73 0L126.14 0ZM161.86 0L161.86 0Q154.94 0.70 151.87 0.70L151.87 0.70L151.87 0.70Q145.15 0.70 141.18-1.79L141.18-1.79L141.18-1.79Q137.22-4.29 137.22-10.82L137.22-10.82L137.22-16.13L137.22-16.13Q137.22-22.46 141.63-24.64L141.63-24.64L141.63-24.64Q143.74-25.73 147.01-25.73L147.01-25.73L147.01-25.73Q150.02-25.73 153.09-24.74L153.09-24.74L153.09-24.74Q156.16-23.74 158.27-22.14L158.27-22.14L158.27-22.14Q158.27-25.66 156.22-27.74L156.22-27.74L156.22-27.74Q154.18-29.82 148.35-29.82L148.35-29.82L148.54-32.58L148.54-32.58Q154.69-32.58 157.60-30.62L157.60-30.62L157.60-30.62Q160.51-28.67 161.18-25.98L161.18-25.98L161.18-25.98Q161.86-23.30 161.86-19.07L161.86-19.07L161.86 0ZM158.27-19.39L158.27-19.39Q155.65-20.61 152.67-21.50L152.67-21.50L152.67-21.50Q149.70-22.40 147.20-22.40L147.20-22.40L147.20-22.40Q140.74-22.40 140.74-15.94L140.74-15.94L140.74-10.37L140.74-10.37Q140.74-6.21 143.62-4.32L143.62-4.32L143.62-4.32Q146.50-2.43 151.81-2.43L151.81-2.43L151.81-2.43Q154.56-2.43 158.27-2.94L158.27-2.94L158.27-19.39ZM168.06 0L168.06-32.06L171.65-32.06L171.46-29.82L171.46-29.82Q174.46-32.64 179.33-32.64L179.33-32.64L179.33-32.64Q181.06-32.64 184.06-32.06L184.06-32.06L183.10-28.80L183.10-28.80Q181.06-29.44 178.82-29.44L178.82-29.44L178.82-29.44Q175.87-29.44 173.76-28.35L173.76-28.35L173.76-28.35Q171.65-27.26 171.65-25.09L171.65-25.09L171.65 0L168.06 0Z" fill="#000000"></path></g></g><style>text {
  font-size: 64px;
  font-family: Arial Black;
  dominant-baseline: central;
  text-anchor: middle;
}</style></svg>