<svg width="171.04501953125px" height="124.4224853515625px" xmlns="http://www.w3.org/2000/svg" viewBox="164.477490234375 12.78875732421875 171.04501953125 124.4224853515625" style="background: rgb(255, 255, 255);" preserveAspectRatio="xMidYMid"><defs><filter id="editing-hover" x="-100%" y="-100%" width="300%" height="300%"><feFlood flood-color="#d88c51" result="flood"></feFlood><feComposite operator="in" in2="SourceAlpha" in="flood" result="shadow"></feComposite><feOffset dx="0.1" dy="0.1" in="SourceGraphic" result="offset-1"></feOffset><feOffset dx="-0.1" dy="-0.1" in="shadow" result="offset-2"></feOffset><feMerge><feMergeNode in="offset-2"></feMergeNode><feMergeNode in="offset-1"></feMergeNode></feMerge></filter></defs><g filter="url(#editing-hover)"><g transform="translate(194.35000133514404, 98.06999969482422)"><path d="M6.02-11.39L6.02-11.39Q6.21-9.22 7.65-7.23L7.65-7.23L7.65-7.23Q9.09-5.25 11.62-4L11.62-4L11.62-4Q14.14-2.75 17.41-2.75L17.41-2.75L17.41-2.75Q22.34-2.75 25.63-4.96L25.63-4.96L25.63-4.96Q28.93-7.17 28.93-11.97L28.93-11.97L28.93-11.97Q28.93-14.78 27.33-16.67L27.33-16.67L27.33-16.67Q25.73-18.56 23.36-19.68L23.36-19.68L23.36-19.68Q20.99-20.80 16.90-22.27L16.90-22.27L16.90-22.27Q12.48-23.81 9.82-25.12L9.82-25.12L9.82-25.12Q7.17-26.43 5.34-28.67L5.34-28.67L5.34-28.67Q3.52-30.91 3.52-34.43L3.52-34.43L3.52-34.43Q3.52-37.25 5.12-39.78L5.12-39.78L5.12-39.78Q6.72-42.30 9.95-43.87L9.95-43.87L9.95-43.87Q13.18-45.44 17.92-45.44L17.92-45.44L17.92-45.44Q21.06-45.44 23.10-44.99L23.10-44.99L23.10-44.99Q25.15-44.54 27.26-43.52L27.26-43.52L26.18-40.13L26.18-40.13Q22.53-41.98 18.05-41.98L18.05-41.98L18.05-41.98Q13.12-41.98 10.18-39.94L10.18-39.94L10.18-39.94Q7.23-37.89 7.23-34.24L7.23-34.24L7.23-34.24Q7.23-31.94 8.70-30.37L8.70-30.37L8.70-30.37Q10.18-28.80 12.32-27.84L12.32-27.84L12.32-27.84Q14.46-26.88 18.30-25.54L18.30-25.54L18.30-25.54Q22.98-23.94 25.86-22.56L25.86-22.56L25.86-22.56Q28.74-21.18 30.75-18.66L30.75-18.66L30.75-18.66Q32.77-16.13 32.77-12.29L32.77-12.29L32.77-12.29Q32.77-6.40 29.02-2.85L29.02-2.85L29.02-2.85Q25.28 0.70 17.47 0.70L17.47 0.70L17.47 0.70Q12.74 0.70 9.38-1.06L9.38-1.06L9.38-1.06Q6.02-2.82 4.26-5.60L4.26-5.60L4.26-5.60Q2.50-8.38 2.37-11.39L2.37-11.39L6.02-11.39ZM40.90 0L40.90-44.80L44.48-44.80L44.48 0L40.90 0ZM56.77-41.15L56.77-41.15Q55.94-41.15 55.26-41.82L55.26-41.82L55.26-41.82Q54.59-42.50 54.59-43.33L54.59-43.33L54.59-43.33Q54.59-44.16 55.23-44.80L55.23-44.80L55.23-44.80Q55.87-45.44 56.77-45.44L56.77-45.44L56.77-45.44Q57.66-45.44 58.27-44.83L58.27-44.83L58.27-44.83Q58.88-44.22 58.88-43.33L58.88-43.33L58.88-43.33Q58.88-42.43 58.24-41.79L58.24-41.79L58.24-41.79Q57.60-41.15 56.77-41.15L56.77-41.15ZM54.91 0L54.91-32.06L58.50-32.06L58.50 0L54.91 0ZM105.41 0L105.41-21.95L105.41-21.95Q105.41-25.79 103.39-27.58L103.39-27.58L103.39-27.58Q101.38-29.38 98.18-29.38L98.18-29.38L98.18-29.38Q95.68-29.38 92.61-28.29L92.61-28.29L90.24-27.14L90.24-27.14Q91.33-24.96 91.33-22.14L91.33-22.14L91.33 0L87.81 0L87.81-21.95L87.81-21.95Q87.81-25.86 85.79-27.62L85.79-27.62L85.79-27.62Q83.78-29.38 80.51-29.38L80.51-29.38L80.51-29.38Q78.53-29.38 76.42-28.77L76.42-28.77L76.42-28.77Q74.30-28.16 72.58-27.20L72.58-27.20L72.58 0L68.99 0L68.99-32.06L72.58-32.06L72.26-30.02L72.26-30.02Q76.48-32.51 80.90-32.51L80.90-32.51L80.90-32.51Q83.20-32.51 85.22-31.74L85.22-31.74L85.22-31.74Q87.23-30.98 88.64-29.50L88.64-29.50L88.64-29.50Q89.54-30.02 91.33-30.91L91.33-30.91L91.33-30.91Q95.10-32.64 98.62-32.64L98.62-32.64L98.62-32.64Q103.17-32.64 106.05-29.86L106.05-29.86L106.05-29.86Q108.93-27.07 108.93-22.14L108.93-22.14L108.93 0L105.41 0Z" fill="#000000"></path></g></g><style>text {
  font-size: 64px;
  font-family: Arial Black;
  dominant-baseline: central;
  text-anchor: middle;
}</style></svg>