<svg width="255.70493164062498px" height="124.4224853515625px" xmlns="http://www.w3.org/2000/svg" viewBox="122.14753417968751 12.78875732421875 255.70493164062498 124.4224853515625" style="background: rgb(255, 255, 255);" preserveAspectRatio="xMidYMid"><defs><filter id="editing-hover" x="-100%" y="-100%" width="300%" height="300%"><feFlood flood-color="#d88c51" result="flood"></feFlood><feComposite operator="in" in2="SourceAlpha" in="flood" result="shadow"></feComposite><feOffset dx="0.1" dy="0.1" in="SourceGraphic" result="offset-1"></feOffset><feOffset dx="-0.1" dy="-0.1" in="shadow" result="offset-2"></feOffset><feMerge><feMergeNode in="offset-2"></feMergeNode><feMergeNode in="offset-1"></feMergeNode></feMerge></filter></defs><g filter="url(#editing-hover)"><g transform="translate(161.74499797821045, 104.43999862670898)"><path d="M6.02-11.39L6.02-11.39Q6.21-9.22 7.65-7.23L7.65-7.23L7.65-7.23Q9.09-5.25 11.62-4L11.62-4L11.62-4Q14.14-2.75 17.41-2.75L17.41-2.75L17.41-2.75Q22.34-2.75 25.63-4.96L25.63-4.96L25.63-4.96Q28.93-7.17 28.93-11.97L28.93-11.97L28.93-11.97Q28.93-14.78 27.33-16.67L27.33-16.67L27.33-16.67Q25.73-18.56 23.36-19.68L23.36-19.68L23.36-19.68Q20.99-20.80 16.90-22.27L16.90-22.27L16.90-22.27Q12.48-23.81 9.82-25.12L9.82-25.12L9.82-25.12Q7.17-26.43 5.34-28.67L5.34-28.67L5.34-28.67Q3.52-30.91 3.52-34.43L3.52-34.43L3.52-34.43Q3.52-37.25 5.12-39.78L5.12-39.78L5.12-39.78Q6.72-42.30 9.95-43.87L9.95-43.87L9.95-43.87Q13.18-45.44 17.92-45.44L17.92-45.44L17.92-45.44Q21.06-45.44 23.10-44.99L23.10-44.99L23.10-44.99Q25.15-44.54 27.26-43.52L27.26-43.52L26.18-40.13L26.18-40.13Q22.53-41.98 18.05-41.98L18.05-41.98L18.05-41.98Q13.12-41.98 10.18-39.94L10.18-39.94L10.18-39.94Q7.23-37.89 7.23-34.24L7.23-34.24L7.23-34.24Q7.23-31.94 8.70-30.37L8.70-30.37L8.70-30.37Q10.18-28.80 12.32-27.84L12.32-27.84L12.32-27.84Q14.46-26.88 18.30-25.54L18.30-25.54L18.30-25.54Q22.98-23.94 25.86-22.56L25.86-22.56L25.86-22.56Q28.74-21.18 30.75-18.66L30.75-18.66L30.75-18.66Q32.77-16.13 32.77-12.29L32.77-12.29L32.77-12.29Q32.77-6.40 29.02-2.85L29.02-2.85L29.02-2.85Q25.28 0.70 17.47 0.70L17.47 0.70L17.47 0.70Q12.74 0.70 9.38-1.06L9.38-1.06L9.38-1.06Q6.02-2.82 4.26-5.60L4.26-5.60L4.26-5.60Q2.50-8.38 2.37-11.39L2.37-11.39L6.02-11.39ZM40.90 13.44L40.90-32.06L44.48-32.06L44.16-28.80L44.16-28.80Q45.89-30.66 48.22-31.62L48.22-31.62L48.22-31.62Q50.56-32.58 52.86-32.58L52.86-32.58L52.86-32.58Q58.82-32.58 61.92-29.12L61.92-29.12L61.92-29.12Q65.02-25.66 65.02-20.16L65.02-20.16L65.02-11.26L65.02-11.26Q65.02-5.44 61.76-2.34L61.76-2.34L61.76-2.34Q58.50 0.77 53.12 0.77L53.12 0.77L53.12 0.77Q50.37 0.77 48.26 0L48.26 0L48.26 0Q46.14-0.77 44.48-2.69L44.48-2.69L44.48 12.03L40.90 13.44ZM61.44-20.42L61.44-20.42Q61.44-25.09 58.98-27.20L58.98-27.20L58.98-27.20Q56.51-29.31 53.12-29.31L53.12-29.31L53.12-29.31Q49.66-29.31 47.17-27.23L47.17-27.23L47.17-27.23Q44.67-25.15 44.48-20.74L44.48-20.74L44.48-10.62L44.48-10.62Q44.48-6.46 46.85-4.48L46.85-4.48L46.85-4.48Q49.22-2.50 53.12-2.50L53.12-2.50L53.12-2.50Q56.64-2.50 59.04-4.58L59.04-4.58L59.04-4.58Q61.44-6.66 61.44-10.62L61.44-10.62L61.44-20.42ZM71.04 0L71.04-32.06L74.62-32.06L74.43-29.82L74.43-29.82Q77.44-32.64 82.30-32.64L82.30-32.64L82.30-32.64Q84.03-32.64 87.04-32.06L87.04-32.06L86.08-28.80L86.08-28.80Q84.03-29.44 81.79-29.44L81.79-29.44L81.79-29.44Q78.85-29.44 76.74-28.35L76.74-28.35L76.74-28.35Q74.62-27.26 74.62-25.09L74.62-25.09L74.62 0L71.04 0ZM112.13-2.24L112.13-2.24Q109.82-0.77 106.88 0L106.88 0L106.88 0Q103.94 0.77 100.99 0.77L100.99 0.77L100.99 0.77Q96.26 0.77 93.47-1.57L93.47-1.57L93.47-1.57Q90.69-3.90 90.69-8.58L90.69-8.58L90.69-21.70L90.69-21.70Q90.69-26.88 93.92-29.76L93.92-29.76L93.92-29.76Q97.15-32.64 102.46-32.64L102.46-32.64L102.46-32.64Q107.78-32.64 110.75-29.79L110.75-29.79L110.75-29.79Q113.73-26.94 113.73-21.89L113.73-21.89L113.73-13.57L94.27-12.48L94.27-8.58L94.27-8.58Q94.27-5.50 96.26-3.97L96.26-3.97L96.26-3.97Q98.24-2.43 101.44-2.43L101.44-2.43L101.44-2.43Q105.92-2.43 110.72-4.99L110.72-4.99L112.13-2.24ZM110.14-22.34L110.14-22.34Q110.14-26.30 107.65-27.94L107.65-27.94L107.65-27.94Q105.15-29.57 102.40-29.57L102.40-29.57L102.40-29.57Q98.88-29.57 96.58-27.65L96.58-27.65L96.58-27.65Q94.27-25.73 94.27-21.63L94.27-21.63L94.27-16L110.14-16.77L110.14-22.34ZM143.23 0L143.23 0Q136.32 0.70 133.25 0.70L133.25 0.70L133.25 0.70Q126.53 0.70 122.56-1.79L122.56-1.79L122.56-1.79Q118.59-4.29 118.59-10.82L118.59-10.82L118.59-16.13L118.59-16.13Q118.59-22.46 123.01-24.64L123.01-24.64L123.01-24.64Q125.12-25.73 128.38-25.73L128.38-25.73L128.38-25.73Q131.39-25.73 134.46-24.74L134.46-24.74L134.46-24.74Q137.54-23.74 139.65-22.14L139.65-22.14L139.65-22.14Q139.65-25.66 137.60-27.74L137.60-27.74L137.60-27.74Q135.55-29.82 129.73-29.82L129.73-29.82L129.92-32.58L129.92-32.58Q136.06-32.58 138.98-30.62L138.98-30.62L138.98-30.62Q141.89-28.67 142.56-25.98L142.56-25.98L142.56-25.98Q143.23-23.30 143.23-19.07L143.23-19.07L143.23 0ZM139.65-19.39L139.65-19.39Q137.02-20.61 134.05-21.50L134.05-21.50L134.05-21.50Q131.07-22.40 128.58-22.40L128.58-22.40L128.58-22.40Q122.11-22.40 122.11-15.94L122.11-15.94L122.11-10.37L122.11-10.37Q122.11-6.21 124.99-4.32L124.99-4.32L124.99-4.32Q127.87-2.43 133.18-2.43L133.18-2.43L133.18-2.43Q135.94-2.43 139.65-2.94L139.65-2.94L139.65-19.39ZM150.53-22.14L150.53-22.14Q150.53-28.86 155.97-31.36L155.97-31.36L155.97-31.36Q158.59-32.58 162.24-32.58L162.24-32.58L162.24-32.58Q164.61-32.58 166.82-32L166.82-32L166.82-32Q169.02-31.42 170.56-30.34L170.56-30.34L170.56-44.80L174.14-44.80L174.14 0L170.62 0.32L170.62 0.32Q166.46 0.77 164.10 0.77L164.10 0.77L164.10 0.77Q161.73 0.77 159.65 0.32L159.65 0.32L159.65 0.32Q157.57-0.13 155.52-1.15L155.52-1.15L155.52-1.15Q153.22-2.30 151.87-4.54L151.87-4.54L151.87-4.54Q150.53-6.78 150.53-10.05L150.53-10.05L150.53-22.14ZM170.56-27.20L170.56-27.20Q168.83-28.16 166.59-28.77L166.59-28.77L166.59-28.77Q164.35-29.38 162.18-29.38L162.18-29.38L162.18-29.38Q158.59-29.38 156.32-27.62L156.32-27.62L156.32-27.62Q154.05-25.86 154.05-21.95L154.05-21.95L154.05-9.98L154.05-9.98Q154.05-2.50 164.35-2.50L164.35-2.50L164.35-2.50Q166.78-2.50 170.56-3.07L170.56-3.07L170.56-27.20Z" fill="#000000"></path></g></g><style>text {
  font-size: 64px;
  font-family: Arial Black;
  dominant-baseline: central;
  text-anchor: middle;
}</style></svg>