<svg width="189.06494140625px" height="124.4224853515625px" xmlns="http://www.w3.org/2000/svg" viewBox="155.467529296875 12.78875732421875 189.06494140625 124.4224853515625" style="background: rgb(255, 255, 255);" preserveAspectRatio="xMidYMid"><defs><filter id="editing-hover" x="-100%" y="-100%" width="300%" height="300%"><feFlood flood-color="#d88c51" result="flood"></feFlood><feComposite operator="in" in2="SourceAlpha" in="flood" result="shadow"></feComposite><feOffset dx="0.1" dy="0.1" in="SourceGraphic" result="offset-1"></feOffset><feOffset dx="-0.1" dy="-0.1" in="shadow" result="offset-2"></feOffset><feMerge><feMergeNode in="offset-2"></feMergeNode><feMergeNode in="offset-1"></feMergeNode></feMerge></filter></defs><g filter="url(#editing-hover)"><g transform="translate(187.5049991607666, 98.06999969482422)"><path d="M4.99 0L4.99-44.80L20.74-44.80L20.74-44.80Q26.82-44.80 29.79-41.09L29.79-41.09L29.79-41.09Q32.77-37.38 32.77-31.10L32.77-31.10L32.77-31.10Q32.77-27.07 32.13-23.84L32.13-23.84L32.13-23.84Q31.49-20.61 28.93-18.14L28.93-18.14L28.93-18.14Q26.37-15.68 21.18-15.68L21.18-15.68L8.58-15.68L8.58 0L4.99 0ZM21.25-19.20L21.25-19.20Q24.83-19.20 26.59-21.12L26.59-21.12L26.59-21.12Q28.35-23.04 28.77-25.47L28.77-25.47L28.77-25.47Q29.18-27.90 29.18-30.91L29.18-30.91L29.18-30.91Q29.18-36.16 27.01-38.78L27.01-38.78L27.01-38.78Q24.83-41.41 20.99-41.41L20.99-41.41L8.58-41.41L8.58-19.20L21.25-19.20ZM39.87 0L39.87-44.80L43.46-44.80L43.46 0L39.87 0ZM75.58 0L75.58 0Q68.67 0.70 65.60 0.70L65.60 0.70L65.60 0.70Q58.88 0.70 54.91-1.79L54.91-1.79L54.91-1.79Q50.94-4.29 50.94-10.82L50.94-10.82L50.94-16.13L50.94-16.13Q50.94-22.46 55.36-24.64L55.36-24.64L55.36-24.64Q57.47-25.73 60.74-25.73L60.74-25.73L60.74-25.73Q63.74-25.73 66.82-24.74L66.82-24.74L66.82-24.74Q69.89-23.74 72-22.14L72-22.14L72-22.14Q72-25.66 69.95-27.74L69.95-27.74L69.95-27.74Q67.90-29.82 62.08-29.82L62.08-29.82L62.27-32.58L62.27-32.58Q68.42-32.58 71.33-30.62L71.33-30.62L71.33-30.62Q74.24-28.67 74.91-25.98L74.91-25.98L74.91-25.98Q75.58-23.30 75.58-19.07L75.58-19.07L75.58 0ZM72-19.39L72-19.39Q69.38-20.61 66.40-21.50L66.40-21.50L66.40-21.50Q63.42-22.40 60.93-22.40L60.93-22.40L60.93-22.40Q54.46-22.40 54.46-15.94L54.46-15.94L54.46-10.37L54.46-10.37Q54.46-6.21 57.34-4.32L57.34-4.32L57.34-4.32Q60.22-2.43 65.54-2.43L65.54-2.43L65.54-2.43Q68.29-2.43 72-2.94L72-2.94L72-19.39ZM85.06-41.15L85.06-41.15Q84.22-41.15 83.55-41.82L83.55-41.82L83.55-41.82Q82.88-42.50 82.88-43.33L82.88-43.33L82.88-43.33Q82.88-44.16 83.52-44.80L83.52-44.80L83.52-44.80Q84.16-45.44 85.06-45.44L85.06-45.44L85.06-45.44Q85.95-45.44 86.56-44.83L86.56-44.83L86.56-44.83Q87.17-44.22 87.17-43.33L87.17-43.33L87.17-43.33Q87.17-42.43 86.53-41.79L86.53-41.79L86.53-41.79Q85.89-41.15 85.06-41.15L85.06-41.15ZM83.20 0L83.20-32.06L86.78-32.06L86.78 0L83.20 0ZM116.48 0L116.48-21.95L116.48-21.95Q116.48-25.86 114.21-27.62L114.21-27.62L114.21-27.62Q111.94-29.38 108.35-29.38L108.35-29.38L108.35-29.38Q106.18-29.38 103.94-28.77L103.94-28.77L103.94-28.77Q101.70-28.16 99.97-27.20L99.97-27.20L99.97 0L96.38 0L96.38-32.06L99.97-32.06L99.71-29.89L99.71-29.89Q101.25-31.23 103.62-31.90L103.62-31.90L103.62-31.90Q105.98-32.58 108.54-32.58L108.54-32.58L108.54-32.58Q112.06-32.58 114.56-31.42L114.56-31.42L114.56-31.42Q117.12-30.27 118.56-27.97L118.56-27.97L118.56-27.97Q120.00-25.66 120.00-22.14L120.00-22.14L120.00 0L116.48 0Z" fill="#000000"></path></g></g><style>text {
  font-size: 64px;
  font-family: Arial Black;
  dominant-baseline: central;
  text-anchor: middle;
}</style></svg>