<?xml version="1.0" encoding="UTF-8"?> <!-- Generator: Adobe Illustrator 19.0.0, SVG Export Plug-In . SVG Version: 6.00 Build 0) --> <svg xmlns="http://www.w3.org/2000/svg" xmlns:xlink="http://www.w3.org/1999/xlink" id="Layer_1" x="0px" y="0px" viewBox="0 0 400.549 400.549" style="enable-background:new 0 0 400.549 400.549;" xml:space="preserve"> <rect x="8.663" y="118.691" style="fill:#FFFFFF;" width="383.289" height="163.232"></rect> <rect x="33.358" y="143.386" style="fill:#4FBF9F;" width="333.834" height="113.713"></rect> <g> <rect x="317.737" y="162.586" style="fill:#193651;" width="12.347" height="12.347"></rect> <rect x="317.737" y="194.069" style="fill:#193651;" width="12.347" height="12.347"></rect> <rect x="317.737" y="225.616" style="fill:#193651;" width="12.347" height="12.347"></rect> <polygon style="fill:#193651;" points="398.093,288.065 398.093,112.485 330.085,112.485 330.085,27.216 234.861,27.216 249.083,12.994 240.485,4.331 211.394,33.358 240.485,62.448 249.083,53.786 234.861,39.564 317.737,39.564 317.737,112.485 75.378,112.485 75.378,23.467 89.6,37.689 98.263,29.026 69.236,0 40.792,29.026 49.455,37.689 63.03,23.661 63.03,112.485 2.457,112.485 2.457,288.065 75.378,288.065 75.378,275.717 14.804,275.717 14.804,124.832 385.745,124.832 385.745,275.717 124.832,275.717 124.832,288.065 336.291,288.065 336.291,346.182 322.069,331.96 313.406,340.622 342.432,369.648 371.523,340.622 362.861,331.96 348.638,346.182 348.638,288.065 "></polygon> <polygon style="fill:#193651;" points="184.824,199.046 184.824,186.699 93.931,186.699 93.931,377.083 79.709,362.861 71.046,371.523 100.137,400.549 129.164,371.523 120.501,362.861 106.279,377.083 106.279,199.046 "></polygon> </g> <g> </g> <g> </g> <g> </g> <g> </g> <g> </g> <g> </g> <g> </g> <g> </g> <g> </g> <g> </g> <g> </g> <g> </g> <g> </g> <g> </g> <g> </g> </svg> 