<svg width="244.14497070312498px" height="124.4224853515625px" xmlns="http://www.w3.org/2000/svg" viewBox="127.92751464843751 12.78875732421875 244.14497070312498 124.4224853515625" style="background: rgb(255, 255, 255);" preserveAspectRatio="xMidYMid"><defs><filter id="editing-hover" x="-100%" y="-100%" width="300%" height="300%"><feFlood flood-color="#d88c51" result="flood"></feFlood><feComposite operator="in" in2="SourceAlpha" in="flood" result="shadow"></feComposite><feOffset dx="0.1" dy="0.1" in="SourceGraphic" result="offset-1"></feOffset><feOffset dx="-0.1" dy="-0.1" in="shadow" result="offset-2"></feOffset><feMerge><feMergeNode in="offset-2"></feMergeNode><feMergeNode in="offset-1"></feMergeNode></feMerge></filter></defs><g filter="url(#editing-hover)"><g transform="translate(165.46000051498413, 98.19999885559082)"><path d="M27.33-1.47L27.33-1.47Q21.63 0.64 16.70 0.64L16.70 0.64L16.70 0.64Q11.14 0.64 7.68-2.30L7.68-2.30L7.68-2.30Q4.22-5.25 4.22-11.71L4.22-11.71L4.22-32.26L4.22-32.26Q4.22-37.12 5.60-39.62L5.60-39.62L5.60-39.62Q6.98-42.11 9.79-43.84L9.79-43.84L9.79-43.84Q12.61-45.44 16.70-45.44L16.70-45.44L16.70-45.44Q21.70-45.44 25.73-43.33L25.73-43.33L24.70-40.90L24.70-40.90Q21.06-42.24 17.79-42.24L17.79-42.24L17.79-42.24Q13.89-42.24 10.85-40.32L10.85-40.32L10.85-40.32Q7.81-38.40 7.81-32.83L7.81-32.83L7.81-11.84L7.81-11.84Q7.81-7.42 10.11-5.02L10.11-5.02L10.11-5.02Q12.42-2.62 17.02-2.62L17.02-2.62L17.02-2.62Q21.06-2.62 26.56-4.48L26.56-4.48L27.33-1.47ZM52.10 0L52.10-21.95L52.10-21.95Q52.10-25.86 49.82-27.62L49.82-27.62L49.82-27.62Q47.55-29.38 43.97-29.38L43.97-29.38L43.97-29.38Q41.79-29.38 39.55-28.77L39.55-28.77L39.55-28.77Q37.31-28.16 35.58-27.20L35.58-27.20L35.58 0L32 0L32-44.80L35.58-44.80L35.58-30.34L35.58-30.34Q37.18-31.42 39.42-32.03L39.42-32.03L39.42-32.03Q41.66-32.64 44.10-32.64L44.10-32.64L44.10-32.64Q47.42-32.64 50.18-31.42L50.18-31.42L50.18-31.42Q52.74-30.27 54.18-27.97L54.18-27.97L54.18-27.97Q55.62-25.66 55.62-22.14L55.62-22.14L55.62 0L52.10 0ZM83.14-2.24L83.14-2.24Q80.83-0.77 77.89 0L77.89 0L77.89 0Q74.94 0.77 72 0.77L72 0.77L72 0.77Q67.26 0.77 64.48-1.57L64.48-1.57L64.48-1.57Q61.70-3.90 61.70-8.58L61.70-8.58L61.70-21.70L61.70-21.70Q61.70-26.88 64.93-29.76L64.93-29.76L64.93-29.76Q68.16-32.64 73.47-32.64L73.47-32.64L73.47-32.64Q78.78-32.64 81.76-29.79L81.76-29.79L81.76-29.79Q84.74-26.94 84.74-21.89L84.74-21.89L84.74-13.57L65.28-12.48L65.28-8.58L65.28-8.58Q65.28-5.50 67.26-3.97L67.26-3.97L67.26-3.97Q69.25-2.43 72.45-2.43L72.45-2.43L72.45-2.43Q76.93-2.43 81.73-4.99L81.73-4.99L83.14-2.24ZM81.15-22.34L81.15-22.34Q81.15-26.30 78.66-27.94L78.66-27.94L78.66-27.94Q76.16-29.57 73.41-29.57L73.41-29.57L73.41-29.57Q69.89-29.57 67.58-27.65L67.58-27.65L67.58-27.65Q65.28-25.73 65.28-21.63L65.28-21.63L65.28-16L81.15-16.77L81.15-22.34ZM110.14-0.38L110.14-0.38Q106.18 0.64 102.46 0.64L102.46 0.64L102.46 0.64Q99.01 0.64 96.70-0.13L96.70-0.13L96.70-0.13Q92.93-1.41 91.23-4.06L91.23-4.06L91.23-4.06Q89.54-6.72 89.54-11.52L89.54-11.52L89.54-19.71L89.54-19.71Q89.54-26.05 92.86-29.34L92.86-29.34L92.86-29.34Q96.19-32.64 101.44-32.64L101.44-32.64L101.44-32.64Q105.60-32.64 110.02-30.59L110.02-30.59L108.99-27.97L108.99-27.97Q105.34-29.44 101.95-29.44L101.95-29.44L101.95-29.44Q97.98-29.44 95.55-27.17L95.55-27.17L95.55-27.17Q93.12-24.90 93.12-20.10L93.12-20.10L93.12-10.82L93.12-10.82Q93.12-6.40 95.78-4.42L95.78-4.42L95.78-4.42Q98.43-2.43 102.85-2.43L102.85-2.43L102.85-2.43Q105.73-2.43 109.38-3.26L109.38-3.26L110.14-0.38ZM135.23 0L122.94-20.29L119.62-17.41L119.62 0L116.03 0L116.03-44.80L119.62-44.80L119.62-21.44L132.42-33.28L134.98-30.78L125.50-22.53L125.50-22.53Q129.86-15.30 139.52 0L139.52 0L135.23 0ZM145.22-8.13L145.22-8.13Q145.60-5.25 148.10-3.81L148.10-3.81L148.10-3.81Q150.59-2.37 153.66-2.37L153.66-2.37L153.66-2.37Q156.54-2.37 158.91-3.68L158.91-3.68L158.91-3.68Q161.28-4.99 161.28-7.94L161.28-7.94L161.28-7.94Q161.28-9.86 160.16-11.10L160.16-11.10L160.16-11.10Q159.04-12.35 157.38-13.12L157.38-13.12L157.38-13.12Q155.71-13.89 152.90-14.78L152.90-14.78L152.90-14.78Q149.76-15.81 147.78-16.70L147.78-16.70L147.78-16.70Q145.79-17.60 144.32-19.23L144.32-19.23L144.32-19.23Q142.85-20.86 142.59-23.36L142.59-23.36L142.53-24.13L142.53-24.13Q142.53-26.24 143.71-28.26L143.71-28.26L143.71-28.26Q144.90-30.27 147.36-31.55L147.36-31.55L147.36-31.55Q149.82-32.83 153.54-32.83L153.54-32.83L153.54-32.83Q155.58-32.83 157.15-32.42L157.15-32.42L157.15-32.42Q158.72-32 159.62-31.55L159.62-31.55L159.62-31.55Q160.51-31.10 160.70-30.98L160.70-30.98L159.49-28.03L159.49-28.03Q159.30-28.16 158.56-28.54L158.56-28.54L158.56-28.54Q157.82-28.93 156.48-29.31L156.48-29.31L156.48-29.31Q155.14-29.70 153.54-29.70L153.54-29.70L153.54-29.70Q150.46-29.70 148.29-28.26L148.29-28.26L148.29-28.26Q146.11-26.82 146.11-24.26L146.11-24.26L146.11-24.26Q146.11-21.82 148.10-20.54L148.10-20.54L148.10-20.54Q150.08-19.26 154.18-17.98L154.18-17.98L154.18-17.98Q157.63-16.83 159.74-15.81L159.74-15.81L159.74-15.81Q161.86-14.78 163.36-12.90L163.36-12.90L163.36-12.90Q164.86-11.01 164.86-8L164.86-8L164.86-8Q164.86-4.16 162.02-1.60L162.02-1.60L162.02-1.60Q159.17 0.96 153.66 0.96L153.66 0.96L153.66 0.96Q150.02 0.96 147.36-0.29L147.36-0.29L147.36-0.29Q144.70-1.54 143.33-3.58L143.33-3.58L143.33-3.58Q141.95-5.63 141.82-8.13L141.82-8.13L145.22-8.13Z" fill="#000000"></path></g></g><style>text {
  font-size: 64px;
  font-family: Arial Black;
  dominant-baseline: central;
  text-anchor: middle;
}</style></svg>