<svg width="198.117529296875px" height="124.4224853515625px" xmlns="http://www.w3.org/2000/svg" viewBox="150.9412353515625 12.78875732421875 198.117529296875 124.4224853515625" style="background: rgb(255, 255, 255);" preserveAspectRatio="xMidYMid"><defs><filter id="editing-hover" x="-100%" y="-100%" width="300%" height="300%"><feFlood flood-color="#d88c51" result="flood"></feFlood><feComposite operator="in" in2="SourceAlpha" in="flood" result="shadow"></feComposite><feOffset dx="0.1" dy="0.1" in="SourceGraphic" result="offset-1"></feOffset><feOffset dx="-0.1" dy="-0.1" in="shadow" result="offset-2"></feOffset><feMerge><feMergeNode in="offset-2"></feMergeNode><feMergeNode in="offset-1"></feMergeNode></feMerge></filter></defs><g filter="url(#editing-hover)"><g transform="translate(181.3299961090088, 97.75)"><path d="M4.99 0L4.99-44.80L26.37-44.80L26.37-41.41L8.58-41.41L8.58-26.43L19.52-26.43L18.05-22.91L8.58-22.91L8.58 0L4.99 0ZM33.47 0L33.47-44.80L37.06-44.80L37.06 0L33.47 0ZM71.04-11.78L71.04-11.78Q71.04-6.40 68.10-2.88L68.10-2.88L68.10-2.88Q65.15 0.64 59.20 0.64L59.20 0.64L59.20 0.64Q53.25 0.64 50.21-2.91L50.21-2.91L50.21-2.91Q47.17-6.46 47.17-11.78L47.17-11.78L47.17-20.22L47.17-20.22Q47.17-26.30 50.27-29.54L50.27-29.54L50.27-29.54Q53.38-32.77 59.20-32.77L59.20-32.77L59.20-32.77Q64.77-32.77 67.90-29.41L67.90-29.41L67.90-29.41Q71.04-26.05 71.04-20.22L71.04-20.22L71.04-11.78ZM67.46-20.22L67.46-20.22Q67.46-25.02 65.25-27.26L65.25-27.26L65.25-27.26Q63.04-29.50 59.20-29.50L59.20-29.50L59.20-29.50Q55.23-29.50 52.99-27.26L52.99-27.26L52.99-27.26Q50.75-25.02 50.75-20.22L50.75-20.22L50.75-11.14L50.75-11.14Q50.75-7.30 53.02-4.93L53.02-4.93L53.02-4.93Q55.30-2.56 59.20-2.56L59.20-2.56L59.20-2.56Q63.17-2.56 65.31-4.90L65.31-4.90L65.31-4.90Q67.46-7.23 67.46-11.14L67.46-11.14L67.46-20.22ZM77.06 0L77.06-32.06L80.64-32.06L80.45-29.82L80.45-29.82Q83.46-32.64 88.32-32.64L88.32-32.64L88.32-32.64Q90.05-32.64 93.06-32.06L93.06-32.06L92.10-28.80L92.10-28.80Q90.05-29.44 87.81-29.44L87.81-29.44L87.81-29.44Q84.86-29.44 82.75-28.35L82.75-28.35L82.75-28.35Q80.64-27.26 80.64-25.09L80.64-25.09L80.64 0L77.06 0ZM121.47 0L121.47 0Q114.56 0.70 111.49 0.70L111.49 0.70L111.49 0.70Q104.77 0.70 100.80-1.79L100.80-1.79L100.80-1.79Q96.83-4.29 96.83-10.82L96.83-10.82L96.83-16.13L96.83-16.13Q96.83-22.46 101.25-24.64L101.25-24.64L101.25-24.64Q103.36-25.73 106.62-25.73L106.62-25.73L106.62-25.73Q109.63-25.73 112.70-24.74L112.70-24.74L112.70-24.74Q115.78-23.74 117.89-22.14L117.89-22.14L117.89-22.14Q117.89-25.66 115.84-27.74L115.84-27.74L115.84-27.74Q113.79-29.82 107.97-29.82L107.97-29.82L108.16-32.58L108.16-32.58Q114.30-32.58 117.22-30.62L117.22-30.62L117.22-30.62Q120.13-28.67 120.80-25.98L120.80-25.98L120.80-25.98Q121.47-23.30 121.47-19.07L121.47-19.07L121.47 0ZM117.89-19.39L117.89-19.39Q115.26-20.61 112.29-21.50L112.29-21.50L112.29-21.50Q109.31-22.40 106.82-22.40L106.82-22.40L106.82-22.40Q100.35-22.40 100.35-15.94L100.35-15.94L100.35-10.37L100.35-10.37Q100.35-6.21 103.23-4.32L103.23-4.32L103.23-4.32Q106.11-2.43 111.42-2.43L111.42-2.43L111.42-2.43Q114.18-2.43 117.89-2.94L117.89-2.94L117.89-19.39ZM128.77 0L128.77-44.80L132.35-44.80L132.35 0L128.77 0Z" fill="#000000"></path></g></g><style>text {
  font-size: 64px;
  font-family: Arial Black;
  dominant-baseline: central;
  text-anchor: middle;
}</style></svg>